<svg width="386" height="337" viewBox="0 0 386 337" fill="none" xmlns="http://www.w3.org/2000/svg">
<path fill-rule="evenodd" clip-rule="evenodd" d="M185.237 253.122C287.555 253.122 370.56 265.568 370.56 280.933C370.56 286.255 360.603 291.233 343.264 295.439C356.998 296.384 365.582 297.843 365.753 299.645C366.698 309.603 342.577 310.718 309.616 313.294C336.054 315.955 343.264 317.242 343.436 319.302C344.122 327.628 153.735 332.35 153.306 325.139C153.048 321.534 164.808 319.131 177.684 317.929C153.477 317.5 123.778 316.47 123.606 310.547C123.606 309.173 124.894 307.972 127.211 306.77C72.5327 303.851 6.65151e-05 296.813 6.65151e-05 280.933C-0.0857709 265.568 82.919 253.122 185.237 253.122ZM124.121 321.362C124.121 321.362 104.893 319.989 99.1423 322.478C93.3912 325.053 115.966 327.371 123.263 326.083C130.473 324.796 128.07 321.534 124.121 321.362ZM288.757 332.779C288.757 332.779 261.032 331.663 252.705 333.723C244.379 335.697 276.997 337.5 287.47 336.556C298.028 335.44 294.594 332.95 288.757 332.779Z" fill="#BDD95B"/>
<path fill-rule="evenodd" clip-rule="evenodd" d="M144.98 260.075C202.834 260.075 249.787 268.745 249.787 279.388C249.787 290.032 202.834 298.702 144.98 298.702C87.1252 298.702 40.2579 290.032 40.2579 279.388C40.2579 268.745 87.1252 260.075 144.98 260.075ZM334.766 274.324C336.74 274.324 338.285 274.925 338.285 275.612C338.285 276.298 336.74 276.899 334.766 276.899C332.792 276.899 331.247 276.298 331.247 275.612C331.247 274.925 332.878 274.324 334.766 274.324ZM271.59 296.298C283.349 296.298 292.877 298.015 292.877 300.247C292.877 302.393 283.349 304.195 271.59 304.195C259.83 304.195 250.302 302.479 250.302 300.247C250.302 298.015 259.83 296.298 271.59 296.298Z" fill="#96C042"/>
<path fill-rule="evenodd" clip-rule="evenodd" d="M314.079 254.496C309.616 222.307 333.393 198.015 362.062 189.259L368.329 193.895L365.925 188.144C370.818 186.942 375.796 186.083 380.861 185.826C382.578 185.74 384.123 186.856 384.466 188.573C387.299 201.878 385.839 214.41 381.719 225.397L365.067 220.333L380.174 229.345C379.573 230.719 378.972 232.006 378.286 233.294L375.024 231.406L376.998 235.697C358.543 268.402 318.028 282.565 314.079 254.496Z" fill="#BDD95B"/>
<path fill-rule="evenodd" clip-rule="evenodd" d="M331.333 206.942C333.993 204.453 336.826 202.135 339.83 199.989C341.805 205.225 344.466 214.582 340.517 218.273C336.74 221.878 335.796 213.38 331.333 206.942ZM370.646 208.745C368.929 209.174 367.642 210.376 367.985 211.406C368.243 212.436 369.874 212.865 371.676 212.436C373.393 212.006 374.68 210.805 374.337 209.775C373.994 208.745 372.363 208.315 370.646 208.745Z" fill="#96C042"/>
<path fill-rule="evenodd" clip-rule="evenodd" d="M378.371 193.723C378.371 193.723 365.839 203.422 352.191 220.418C352.277 217.5 352.105 212.864 349.444 212.95C346.011 213.036 346.268 223.422 348.071 225.826C340.603 235.869 333.221 248.058 327.641 261.878C327.641 261.878 351.247 221.706 378.371 193.723ZM353.736 204.624C354.594 204.624 355.195 205.654 355.195 206.856C355.195 208.058 354.508 209.002 353.65 209.002C352.792 209.002 352.191 207.972 352.191 206.77C352.191 205.568 352.878 204.624 353.736 204.624Z" fill="#96C042"/>
<path fill-rule="evenodd" clip-rule="evenodd" d="M11.674 261.706C13.9058 261.706 15.7942 260.247 15.7942 258.444C15.7942 256.642 13.9058 255.182 11.674 255.182C9.44226 255.182 7.55383 256.642 7.55383 258.444C7.55383 260.247 9.35642 261.706 11.674 261.706Z" fill="#BDD95B"/>
<path fill-rule="evenodd" clip-rule="evenodd" d="M377.857 249.689C380.088 249.002 381.977 249.946 381.977 251.663C381.977 253.466 380.174 255.44 377.857 256.127C375.625 256.813 373.736 255.869 373.736 254.153C373.736 252.35 375.539 250.376 377.857 249.689Z" fill="#BDD95B"/>
<path fill-rule="evenodd" clip-rule="evenodd" d="M104.55 215.955C105.237 198.273 96.224 184.453 83.1767 175.612C70.9878 167.285 55.1937 163.337 40.4297 164.453C37.6829 183.079 44.3782 199.045 54.4212 210.633C73.2196 232.35 103.692 238.273 104.55 215.955Z" fill="#96C042"/>
<path fill-rule="evenodd" clip-rule="evenodd" d="M105.666 249.26C101.803 216.986 72.6186 199.561 42.5756 198.445L36.8244 210.719L38.5412 198.359C32.5326 198.445 26.4381 199.131 20.687 200.505C20.7728 215.355 25.5797 228.059 32.7901 238.359L47.64 229.26L35.3652 241.793C60.6014 273.467 109.185 279.218 105.666 249.26Z" fill="#BDD95B"/>
<path fill-rule="evenodd" clip-rule="evenodd" d="M76.8247 207.629C73.6487 205.912 70.301 204.367 66.8675 203.08C66.3525 208.573 66.095 218.359 70.9019 220.934C75.4513 223.509 74.1637 215.011 76.8247 207.629ZM39.3137 219.475C41.1163 219.475 42.5755 220.333 42.5755 221.363C42.5755 222.393 41.1163 223.251 39.3137 223.251C37.5111 223.251 36.0519 222.393 36.0519 221.363C36.0519 220.333 37.5111 219.475 39.3137 219.475Z" fill="#96C042"/>
<path fill-rule="evenodd" clip-rule="evenodd" d="M105.666 249.26C104.464 239.217 100.773 230.633 95.4513 223.509C92.1895 230.032 88.8418 237.586 85.2367 245.569C79.3139 258.874 69.7859 262.565 60.5155 262.136C83.8633 273.895 108.241 270.805 105.666 249.26Z" fill="#96C042"/>
<path fill-rule="evenodd" clip-rule="evenodd" d="M27.9833 206.943C27.9833 206.943 67.4685 223.595 94.4214 259.904C94.4214 259.904 61.374 227.029 27.9833 206.943Z" fill="#96C042"/>
<path fill-rule="evenodd" clip-rule="evenodd" d="M76.8243 36.6398L75.4509 64.5369L66.5238 63.1635L68.0689 44.7943L64.6354 45.0519L65.6654 36.8973L76.9101 36.1248L76.8243 36.6398ZM74.5067 63.3352L75.7942 37.1548L66.6096 37.7557L65.8371 43.8501L69.1848 43.5926L67.6397 62.2193L74.5067 63.3352Z" fill="#3A3C6C"/>
<path fill-rule="evenodd" clip-rule="evenodd" d="M260.688 91.1465C262.92 91.2323 264.637 91.8332 265.924 92.8632C267.212 93.9791 267.984 95.5242 268.156 97.4984C268.328 99.2152 267.727 101.275 266.268 103.593C264.98 105.653 263.178 108.056 260.688 110.717L269.444 110.288L268.585 118.357L249.959 119.044L250.216 111.919L250.388 111.747C252.963 109.001 255.023 106.683 256.74 104.709C258.371 102.735 259.658 101.189 260.431 99.9019C260.431 99.7302 260.517 99.6444 260.517 99.5585C260.517 99.301 260.517 99.1294 260.345 98.9577C260.259 98.786 260.002 98.7002 259.744 98.6143C259.572 98.6143 259.401 98.5285 259.143 98.5285C258.542 98.6143 257.856 98.9577 256.997 99.6444C256.053 100.417 254.937 101.533 253.735 103.078L253.392 103.507L248.757 98.7002L248.929 98.3568C250.388 95.8675 252.105 94.065 253.993 92.8632C256.053 91.7473 258.285 91.1465 260.688 91.1465ZM265.238 93.6358C264.122 92.6916 262.662 92.2624 260.688 92.1765C258.456 92.1765 256.482 92.7774 254.68 93.8933C252.963 95.0092 251.418 96.6401 250.13 98.7002L253.392 102.134C254.508 100.846 255.538 99.8161 256.396 99.0435C257.426 98.1851 258.371 97.756 259.143 97.6701C259.401 97.6701 259.744 97.756 259.916 97.756C260.431 97.8418 260.774 98.0993 261.032 98.4427C261.289 98.786 261.461 99.2152 261.375 99.7302C261.375 99.9019 261.375 100.159 261.289 100.417V100.503L261.203 100.589C260.345 101.876 259.057 103.507 257.341 105.567C255.71 107.541 253.564 109.859 251.074 112.52L250.817 118.185L267.469 117.499L268.156 111.49L258.027 112.005L258.886 111.061C261.718 108.056 263.864 105.481 265.238 103.25C266.525 101.018 267.126 99.2152 266.954 97.756C266.954 95.8675 266.354 94.4941 265.238 93.6358Z" fill="#3A3C6C"/>
<path fill-rule="evenodd" clip-rule="evenodd" d="M19.2274 161.275C22.4034 160.932 24.8927 161.705 26.867 163.765C27.7253 164.966 28.2404 166.34 28.412 167.885C28.6696 169.687 28.1545 171.662 27.0386 173.722C29.1846 174.838 30.3863 176.64 30.6438 179.044C31.2447 184.108 28.4979 187.027 22.4893 187.799C19.0558 188.228 15.6223 187.456 12.2746 185.482L14.2489 179.816C17.5965 181.276 20.2575 181.962 22.0601 181.705C23.691 181.361 24.3777 180.589 24.2918 179.473C24.1202 178.271 22.8326 177.756 20.4292 178.014L17.9399 178.271L17.4249 173.035L20.2575 172.434C21.5451 171.748 22.1459 170.718 21.9742 169.43C21.8026 168.314 20.9442 167.713 19.3133 167.713C17.6824 167.885 15.8798 168.915 13.8197 170.803L10.5579 165.996C12.9613 163.25 15.8798 161.619 19.2274 161.275Z" fill="#3A3C6C"/>
<path fill-rule="evenodd" clip-rule="evenodd" d="M298.542 22.5624L320.002 21.6182L319.916 27.5409L315.881 28.1418C315.881 28.1418 312.62 42.82 321.804 39.7299L322.748 43.5067C322.748 43.5067 306.954 48.2278 309.873 28.571L306.353 28.9143L305.495 44.7943L299.83 44.1076L300.86 29.086L298.113 29.3435L298.542 22.5624Z" fill="#6DABD0"/>
<path fill-rule="evenodd" clip-rule="evenodd" d="M379.401 123.765L384.981 129.001L378.371 135.696L385.582 142.22L379.316 148.486L372.792 141.705L365.667 148.486L360.345 143.164L367.813 135.696L362.491 129.087L367.899 124.623L373.221 130.117L379.401 123.765Z" fill="#3A3C6C"/>
<path fill-rule="evenodd" clip-rule="evenodd" d="M333.908 82.5629C335.882 82.5629 337.513 80.932 337.513 78.9577C337.513 76.9835 335.882 75.3525 333.908 75.3525C331.933 75.3525 330.302 76.9835 330.302 78.9577C330.388 80.932 331.933 82.5629 333.908 82.5629Z" fill="white"/>
<path d="M352.62 60.7605C353.947 60.7605 355.023 59.6845 355.023 58.3571C355.023 57.0297 353.947 55.9536 352.62 55.9536C351.293 55.9536 350.217 57.0297 350.217 58.3571C350.217 59.6845 351.293 60.7605 352.62 60.7605Z" fill="white"/>
<path d="M24.8069 74.9234C27.2246 74.9234 29.1846 72.9634 29.1846 70.5457C29.1846 68.1279 27.2246 66.168 24.8069 66.168C22.3892 66.168 20.4292 68.1279 20.4292 70.5457C20.4292 72.9634 22.3892 74.9234 24.8069 74.9234Z" fill="white"/>
<path fill-rule="evenodd" clip-rule="evenodd" d="M99.9147 34.8374C108.842 34.8374 116.138 40.0735 116.138 46.5113C116.138 47.0263 116.052 47.5413 115.966 48.0564C115.108 43.8503 109.958 40.5885 103.863 40.5885C97.082 40.5885 91.6743 44.537 91.6743 49.4298C91.6743 53.8933 96.1378 57.4985 102.061 58.1852C101.374 58.271 100.687 58.271 99.9147 58.271C90.9876 58.271 83.6914 53.0349 83.6914 46.5971C83.6914 40.1593 90.9876 34.8374 99.9147 34.8374Z" fill="white"/>
<path fill-rule="evenodd" clip-rule="evenodd" d="M252.791 0.502292C244.036 2.39072 238.027 9.08604 239.401 15.3522C239.486 15.8672 239.658 16.3822 239.83 16.8114C239.83 12.5195 244.036 8.22766 250.044 6.9401C256.654 5.48086 262.834 8.22766 263.864 12.9487C264.808 17.2406 261.203 21.79 255.538 23.6784C256.225 23.5926 256.911 23.5067 257.684 23.3351C266.439 21.4466 272.448 14.7513 271.075 8.48518C269.787 2.21904 261.633 -1.38613 252.791 0.502292Z" fill="white"/>
<path fill-rule="evenodd" clip-rule="evenodd" d="M116.31 213.723L113.305 235.525C111.589 248.143 121.117 280.418 167.555 276.813C213.993 273.208 200.516 235.525 200.516 235.525L116.31 213.723Z" fill="#3A3C6C"/>
<path fill-rule="evenodd" clip-rule="evenodd" d="M122.147 132.52C92.1896 124.366 75.623 216.727 102.748 222.135C124.636 226.598 147.383 139.387 122.147 132.52Z" fill="white"/>
<path fill-rule="evenodd" clip-rule="evenodd" d="M120.43 134.323C90.4728 126.168 73.9062 218.529 101.031 223.937C122.919 228.4 145.666 141.19 120.43 134.323Z" fill="#E4E4E4"/>
<path fill-rule="evenodd" clip-rule="evenodd" d="M154.679 124.108L170.216 128.057L201.89 142.735C219.315 157.07 196.997 197.929 200.516 235.611H113.22C113.22 235.611 84.6358 169.774 118.885 138.357L139.057 126.426L154.679 124.108Z" fill="white"/>
<path fill-rule="evenodd" clip-rule="evenodd" d="M208.07 154.838C208.585 158.443 208.585 162.477 208.242 166.855C208.242 167.198 208.156 167.542 208.156 167.971C208.156 168.314 208.07 168.658 208.07 169.087C208.07 169.43 207.984 169.859 207.984 170.203C207.898 170.546 207.898 170.975 207.812 171.319C205.924 185.911 201.117 203.765 200.259 221.705C200.001 226.34 200.087 230.976 200.516 235.611H113.22C113.22 235.611 106.868 220.933 103.692 202.134C115.451 210.289 140.859 224.109 167.984 214.838C176.31 212.005 182.834 207.456 187.898 202.134C183.606 181.791 184.293 149.773 200.345 146.597C202.147 146.254 203.778 146.426 205.237 146.941C206.782 149.172 207.641 151.833 208.07 154.838Z" fill="#E4E4E4"/>
<path fill-rule="evenodd" clip-rule="evenodd" d="M154.679 124.108L170.216 128.057L179.229 132.263C177.684 138.872 167.211 143.937 154.593 143.937C131.246 143.679 132.705 130.203 132.705 130.203L139.143 126.34L154.679 124.108Z" fill="#BDD95B"/>
<path fill-rule="evenodd" clip-rule="evenodd" d="M145.666 156.212C155.28 156.212 162.748 164.023 162.319 173.551C161.889 183.165 153.821 190.89 144.207 190.89C134.593 190.89 127.125 183.079 127.554 173.551C127.898 163.937 136.052 156.212 145.666 156.212Z" fill="#E4E4E4"/>
<path fill-rule="evenodd" clip-rule="evenodd" d="M153.821 155.095L147.297 189.345L138.112 186.769L142.662 164.967L138.542 164.709L141.632 154.409L153.821 155.095Z" fill="white"/>
<path fill-rule="evenodd" clip-rule="evenodd" d="M230.989 200.418C230.989 200.418 220.173 135.439 200.516 139.902C180.946 144.366 193.134 198.272 203.092 214.152C213.135 229.946 235.281 221.534 230.989 200.418Z" fill="white"/>
<path fill-rule="evenodd" clip-rule="evenodd" d="M223.95 194.323C232.362 194.323 238.199 201.104 236.997 209.43C235.796 217.756 228.07 224.538 219.744 224.538C211.332 224.538 205.495 217.756 206.697 209.43C207.898 201.104 215.624 194.323 223.95 194.323Z" fill="#E4E4E4"/>
<path fill-rule="evenodd" clip-rule="evenodd" d="M253.049 220.246C251.418 218.873 228.757 191.061 216.654 202.649C204.637 214.238 223.263 232.349 240.603 237.07C257.856 241.877 258.285 225.568 253.049 220.246Z" fill="#EBB39D"/>
<path fill-rule="evenodd" clip-rule="evenodd" d="M232.705 202.564C226.954 199.473 221.117 198.358 216.74 202.649C204.722 214.238 223.349 232.349 240.688 237.07C240.946 237.156 241.118 237.156 241.375 237.242C225.066 231.491 208.843 203.25 232.705 202.564Z" fill="#DC8C8C"/>
<path fill-rule="evenodd" clip-rule="evenodd" d="M242.834 227.113C242.834 227.113 247.212 220.504 254.937 221.963C260.946 223.079 266.268 230.032 269.444 236.04C270.903 240.418 271.59 243.852 268.156 242.822C269.53 248.229 265.839 247.714 264.637 246.856C263.349 245.998 261.89 241.276 261.89 241.276C261.89 241.276 262.491 245.483 262.748 249.088C263.006 252.779 258.457 252.607 257.942 249.86C257.77 248.916 256.225 242.135 256.225 242.135C256.225 242.135 256.826 246.598 256.911 247.972C256.997 249.345 254.508 250.461 253.478 249.088C252.448 247.714 249.959 239.302 249.959 239.302L246.954 234.152C246.439 237.5 244.379 240.161 242.062 240.59C239.744 241.019 239.401 238.873 239.401 238.873C239.572 238.959 241.032 230.804 242.834 227.113Z" fill="#EBB39D"/>
<path fill-rule="evenodd" clip-rule="evenodd" d="M75.3655 210.546C48.3267 222.993 82.6616 276.04 155.538 286.083C155.538 286.083 175.28 301.963 184.98 304.882C194.765 307.8 203.521 296.813 200.602 286.77C197.684 276.813 181.375 259.13 174.679 258.272C169.615 257.671 163.177 260.59 160.173 262.049C135.022 237.757 102.576 198.014 75.3655 210.546Z" fill="#484881"/>
<path fill-rule="evenodd" clip-rule="evenodd" d="M71.1594 212.692C44.464 225.825 80.0865 278.014 153.048 286.341C153.048 286.341 173.134 301.791 183.006 304.452C192.877 307.199 201.375 295.954 198.199 285.997C195.023 276.126 178.37 258.787 171.589 258.1C166.525 257.585 160.173 260.675 157.254 262.22C131.331 238.529 97.9407 199.559 71.1594 212.692Z" fill="#3A3C6C"/>
<path fill-rule="evenodd" clip-rule="evenodd" d="M95.3656 215.61C93.3913 222.306 127.469 243.851 126.353 233.293C125.838 228.658 98.284 205.911 95.3656 215.61ZM126.868 240.332C128.67 241.104 129.872 242.563 129.357 243.679C128.928 244.709 127.04 244.967 125.237 244.194C123.434 243.422 122.233 241.963 122.748 240.847C123.177 239.731 125.065 239.559 126.868 240.332Z" fill="#484881"/>
<path fill-rule="evenodd" clip-rule="evenodd" d="M71.932 214.066C68.1551 215.954 65.6658 218.53 64.2924 221.791C62.4899 226.169 62.919 231.663 65.4083 237.585C67.9835 243.508 72.6187 249.86 79.1423 256.04C94.4214 270.375 120.087 283.508 153.735 287.285H153.821H153.907C153.993 287.371 173.993 302.65 183.778 305.397L183.692 305.826C174.079 303.165 154.765 288.487 153.735 287.714C120.087 283.852 94.3355 270.719 78.9706 256.298C72.3612 250.118 67.6401 243.68 65.1508 237.757C62.5757 231.749 62.1465 226.169 64.0349 221.62C65.4083 218.358 67.9835 215.611 71.8461 213.723L71.932 214.066Z" fill="#232446"/>
<path fill-rule="evenodd" clip-rule="evenodd" d="M224.036 219.903C252.62 228.229 215.109 285.225 142.147 293.552C142.147 293.552 122.061 309.002 112.19 311.663C102.318 314.41 93.8205 303.165 96.9965 293.208C100.172 283.337 116.825 265.998 123.606 265.311C128.67 264.796 135.022 267.886 137.941 269.431C163.778 245.74 195.023 211.405 224.036 219.903Z" fill="#484881"/>
<path fill-rule="evenodd" clip-rule="evenodd" d="M224.036 219.902C234.594 222.992 236.139 232.692 230.216 244.194C223.092 224.623 206.353 222.22 197.426 222.477C206.267 218.701 215.28 217.327 224.036 219.902Z" fill="#3A3C6C"/>
<path fill-rule="evenodd" clip-rule="evenodd" d="M142.061 293.551C142.061 293.551 138.284 296.47 133.22 299.903C133.22 299.903 129.701 283.594 137.941 269.517C138.027 269.517 133.048 285.225 142.061 293.551Z" fill="#3A3C6C"/>
<path fill-rule="evenodd" clip-rule="evenodd" d="M93.0479 189.689C101.718 189.946 109.443 197.843 110.301 207.285C111.16 216.727 104.894 224.109 96.2239 223.852C87.5543 223.594 79.829 215.697 78.9706 206.255C78.0264 196.899 84.3784 189.431 93.0479 189.689Z" fill="#E4E4E4"/>
<path fill-rule="evenodd" clip-rule="evenodd" d="M72.6186 170.546L68.8418 166.512C68.8418 166.512 65.0649 156.469 59.4855 162.564L65.0649 175.611C65.0649 175.611 72.6186 187.027 79.6573 185.31C85.9234 183.336 72.6186 170.546 72.6186 170.546Z" fill="#DC8C8C"/>
<path fill-rule="evenodd" clip-rule="evenodd" d="M54.1637 126.083L74.8505 132.864L100.43 126.683C101.889 126.34 103.349 126.683 104.55 127.628C105.752 128.572 106.353 129.945 106.353 131.49L105.58 164.795C105.494 166.941 104.035 168.83 101.975 169.345L75.0222 175.868L51.0736 167.285C49.1851 166.598 47.8976 164.881 47.8976 162.821V130.804C47.8976 129.259 48.5843 127.885 49.8718 126.941C51.1594 125.825 52.7045 125.568 54.1637 126.083Z" fill="white"/>
<path fill-rule="evenodd" clip-rule="evenodd" d="M52.3609 128.057L73.2194 134.323L98.6273 127.542C100.087 127.113 101.546 127.456 102.747 128.4C103.949 129.344 104.636 130.632 104.636 132.177V165.568C104.636 167.8 103.177 169.602 101.117 170.203L74.3353 177.328L50.215 169.259C48.2407 168.572 47.039 166.855 46.9532 164.881L46.2665 132.864C46.2665 131.319 46.8673 129.945 48.1549 129.001C49.3566 127.885 50.8159 127.542 52.3609 128.057Z" fill="#6DABD0"/>
<path fill-rule="evenodd" clip-rule="evenodd" d="M52.0177 127.971L54.507 125.482L73.9062 130.718L95.0222 125.053L97.769 127.8L73.2195 134.409L52.361 128.143C52.2752 127.971 52.1035 127.971 52.0177 127.971Z" fill="white"/>
<path fill-rule="evenodd" clip-rule="evenodd" d="M72.6185 130.289C75.1937 128.314 82.4898 123.336 92.7903 122.048L92.5328 124.538C84.4641 126.083 73.9919 130.632 73.9919 130.632L72.6185 130.289Z" fill="white"/>
<path fill-rule="evenodd" clip-rule="evenodd" d="M72.5328 184.023C72.5328 184.023 76.5671 219.56 96.3097 216.47C113.477 213.723 102.318 190.633 93.9921 182.049C88.241 171.405 70.9877 165.74 72.5328 184.023Z" fill="#EBB39D"/>
<path fill-rule="evenodd" clip-rule="evenodd" d="M77.3396 202.221C80.8589 210.375 86.6959 217.929 96.3097 216.47C107.211 214.753 106.696 204.796 102.833 195.611C102.919 200.761 101.374 206.169 95.623 209.088C88.4126 212.864 81.889 207.8 77.3396 202.221Z" fill="#DC8C8C"/>
<path fill-rule="evenodd" clip-rule="evenodd" d="M74.9362 185.568C78.5414 186.598 84.9792 187.542 92.1037 183.851C93.7346 182.993 94.7647 181.362 94.6788 179.474L94.3355 165.482L68.9276 164.709L71.5886 181.791C71.8461 183.594 73.1336 185.053 74.9362 185.568Z" fill="#EBB39D"/>
<path fill-rule="evenodd" clip-rule="evenodd" d="M68.9275 164.71L70.2151 148.486C70.3867 144.881 76.4812 145.139 75.4511 153.637L77.1679 144.28C77.5112 142.134 82.3181 141.018 82.4898 146.598C82.6615 152.091 82.5756 156.04 82.5756 156.04L84.2924 149.43C84.6357 147.37 90.301 146.77 89.786 155.611C89.786 155.611 92.6186 154.409 93.3912 157.671C94.1637 160.933 94.4212 165.568 94.4212 165.568L68.9275 164.71Z" fill="#DC8C8C"/>
<path d="M51.9457 134.848L51.6575 135.926L59.2039 137.943L59.4921 136.865L51.9457 134.848Z" fill="#3A3C6C"/>
<path d="M51.9771 136.814L51.6882 137.892L55.0876 138.803L55.3765 137.725L51.9771 136.814Z" fill="#3A3C6C"/>
<path fill-rule="evenodd" clip-rule="evenodd" d="M161.203 35.8676C170.044 34.3226 179.315 34.8376 186.439 37.4127C187.555 37.5844 188.757 37.8419 189.958 38.1852C197.855 40.5029 203.177 46.0823 201.804 50.8033C201.375 52.2626 200.431 53.3785 199.057 54.2368C198.886 56.2969 198.285 58.5287 197.169 60.9322C197.169 60.9322 215.881 60.2455 195.28 83.0782C189.615 89.3443 182.147 92.3486 174.164 93.4645C181.375 92.177 188.07 89.1727 193.306 83.4216C213.821 60.5888 195.195 61.2755 195.195 61.2755C196.139 59.1296 196.74 57.1553 196.997 55.2669C196.568 55.4386 196.225 55.5244 195.795 55.6102C196.225 55.3527 196.654 55.0952 197.083 54.8377C197.941 47.6274 194.164 42.4771 187.984 39.3011C187.812 39.2153 187.727 39.2153 187.555 39.1295C183.692 38.0136 179.83 37.9277 176.825 38.6144C178.542 37.7561 180.602 37.3269 183.006 37.241C176.568 35.1809 168.757 34.7518 161.203 35.8676ZM195.795 43.5072C197.77 45.9106 198.971 48.7432 199.057 52.1767C199.143 52.0051 199.229 51.8334 199.229 51.6617C200.001 49.0008 198.628 45.9965 195.795 43.5072Z" fill="white"/>
<path fill-rule="evenodd" clip-rule="evenodd" d="M132.447 71.9189L147.383 72.1765C147.898 73.8074 149.443 75.0091 151.332 75.0091C152.362 75.0091 153.22 74.7516 153.992 74.1507C156.825 78.3568 163.435 81.3611 171.074 81.5327C179.83 81.7044 187.297 78.0992 189.529 72.949L192.448 73.0348L192.276 81.1894L191.933 98.1852L191.847 101.104C191.589 116.554 176.739 128.486 165.924 128.314C146.267 127.971 131.503 117.928 131.932 96.9835C127.297 96.2109 123.52 91.7474 123.606 87.1122C123.692 82.3911 127.555 79.301 132.19 80.0735L132.447 71.9189Z" fill="white"/>
<path fill-rule="evenodd" clip-rule="evenodd" d="M139.143 96.5544V130.374C139.143 140.16 170.216 140.246 170.216 132.091L171.417 116.04C171.332 116.04 166.353 87.284 139.143 96.5544Z" fill="#DC8C8C"/>
<path fill-rule="evenodd" clip-rule="evenodd" d="M142.919 98.7861L142.834 121.447C147.297 129.43 159.915 133.293 170.216 130.546L171.332 115.954C171.332 116.039 170.216 89.5157 142.919 98.7861Z" fill="#3A3C6C"/>
<path fill-rule="evenodd" clip-rule="evenodd" d="M127.64 85.5674C127.64 85.5674 113.735 54.7518 129.615 58.357C136.224 26.5113 209.787 27.0263 195.109 60.7604C195.109 60.7604 213.821 60.0737 193.22 82.9065C172.705 105.739 127.64 85.5674 127.64 85.5674Z" fill="#3A3C6C"/>
<path fill-rule="evenodd" clip-rule="evenodd" d="M182.576 37.4985C190.473 39.8161 195.795 45.3955 194.422 50.1166C193.048 54.7518 185.581 56.726 177.684 54.4084C169.787 52.0908 164.465 46.5114 165.838 41.7903C167.126 37.1551 174.679 35.2667 182.576 37.4985ZM127.469 58.6145C128.928 58.6145 130.13 59.3012 130.13 60.0737C130.13 60.8462 128.928 61.4471 127.469 61.3613C126.009 61.3613 124.808 60.6746 124.808 59.902C124.808 59.2153 126.009 58.6145 127.469 58.6145Z" fill="#60629A"/>
<path fill-rule="evenodd" clip-rule="evenodd" d="M188.242 37.4128C196.139 39.7304 201.46 45.3098 200.087 50.0309C199.4 52.3485 197.169 54.0653 194.078 54.8378C195.881 53.9794 197.169 52.606 197.598 50.9751C198.971 46.3399 193.649 40.6746 185.752 38.357C181.89 37.2411 178.027 37.1553 175.023 37.842C178.284 36.2111 183.177 35.9536 188.242 37.4128Z" fill="#60629A"/>
<path fill-rule="evenodd" clip-rule="evenodd" d="M185.409 61.0178C188.585 63.0779 190.473 65.7389 190.387 68.6574C190.302 74.7518 181.718 79.5587 171.332 79.387C162.404 79.2154 154.937 75.4385 153.134 70.4599C156.31 73.4643 162.233 75.4385 169.014 75.6102C179.314 75.7819 187.726 71.49 187.812 65.9964C187.812 64.1938 186.954 62.4771 185.409 61.0178ZM150.645 68.6574C150.645 68.7432 150.645 68.829 150.645 68.829C150.645 70.975 148.07 72.9492 144.979 73.2067C141.889 73.4642 139.4 71.8333 139.4 69.6874C139.4 68.9149 139.743 68.2282 140.258 67.5415C140.173 67.7131 140.173 67.9707 140.087 68.1423C140.087 69.7732 142.49 70.975 145.409 70.8033C147.898 70.8033 149.872 69.8591 150.645 68.6574Z" fill="#232446"/>
<path fill-rule="evenodd" clip-rule="evenodd" d="M135.453 71.49L145.667 71.6617C146.182 73.2926 147.728 74.4943 149.616 74.4943C150.646 74.4943 151.504 74.2368 152.277 73.6359C155.11 77.842 161.719 80.8463 169.359 81.0179C178.114 81.1896 185.582 77.5845 187.814 72.4342L190.732 72.52L190.56 80.6746L190.217 97.6704L190.131 100.589C189.874 116.04 175.024 127.971 164.208 127.799C144.552 127.456 129.788 117.413 130.217 96.4687C125.581 95.6961 121.805 91.2326 121.89 86.5974C121.976 81.8763 125.839 78.7862 130.474 79.5587C130.56 79.5587 135.624 76.5544 135.453 71.49Z" fill="#EBB39D"/>
<path fill-rule="evenodd" clip-rule="evenodd" d="M135.452 71.4902L145.666 71.6619C146.181 73.2928 147.726 74.4945 149.615 74.4945C150.645 74.4945 151.503 74.237 152.276 73.6362C154.937 77.413 160.516 80.2457 167.297 80.8465C167.297 86.7693 167.211 88.9152 166.782 94.2371C173.821 89.7736 177.34 103.164 166.267 105.224C166.267 105.224 165.924 112.435 165.495 118.186C162.319 118.443 160.774 117.757 160.774 117.757C162.662 119.302 164.207 119.645 165.409 119.473C165.237 122.22 164.98 125.139 164.722 127.628C164.55 127.628 164.293 127.628 164.121 127.628C144.465 127.285 129.7 117.242 130.13 96.2973C125.494 95.5247 121.718 91.0612 121.803 86.426C121.889 81.7049 125.752 78.6147 130.387 79.3873C130.559 79.559 135.623 76.5546 135.452 71.4902Z" fill="#DC8C8C"/>
<path fill-rule="evenodd" clip-rule="evenodd" d="M135.452 71.49L145.666 71.6617C146.181 73.2926 147.726 74.4943 149.615 74.4943C150.645 74.4943 151.503 74.2368 152.276 73.6359C152.619 74.0651 152.963 74.4943 153.306 74.9235C149.701 79.3012 145.237 72.6917 145.237 72.6917L135.28 72.7776C135.452 72.4342 135.452 71.9192 135.452 71.49ZM167.297 80.9321C167.984 81.0179 168.671 81.0179 169.357 81.0179C178.113 81.1896 185.581 77.5845 187.813 72.4342H189.272C185.581 83.4214 175.709 83.4214 167.297 80.9321Z" fill="#DC8C8C"/>
<path fill-rule="evenodd" clip-rule="evenodd" d="M156.482 114.065C158.284 114.837 163.521 116.64 170.645 114.666C170.645 114.666 163.006 119.644 156.31 114.237C156.053 114.752 156.224 115.267 156.224 115.267C156.224 115.267 155.452 114.237 155.624 113.722C155.795 113.207 157.083 113.464 157.083 113.464C156.911 113.636 156.654 113.893 156.482 114.065Z" fill="#3A3C6C"/>
<path fill-rule="evenodd" clip-rule="evenodd" d="M141.031 81.7907L157.34 81.619C157.34 81.619 157.426 79.2155 154.164 78.6147C154.164 78.6147 154.765 79.2156 154.422 80.1598C149.958 76.3829 143.091 78.7864 141.031 81.7907Z" fill="#3A3C6C"/>
<path fill-rule="evenodd" clip-rule="evenodd" d="M188.671 83.6789L172.448 82.9064C172.448 82.9064 172.533 80.5029 175.709 79.9879C175.709 79.9879 175.109 80.5888 175.366 81.4471C179.83 77.9278 186.611 80.6746 188.671 83.6789Z" fill="#3A3C6C"/>
<path fill-rule="evenodd" clip-rule="evenodd" d="M149.014 86.769C150.387 86.769 151.503 87.9708 151.417 89.3442V90.5459C151.417 91.9193 150.216 93.0352 148.842 92.9493C147.469 92.9493 146.353 91.7476 146.439 90.3742V90.0309C146.525 90.0309 146.696 90.1167 146.782 90.1167C147.726 90.1167 148.499 89.43 148.585 88.4858C148.67 87.8849 148.327 87.2841 147.812 87.0266C148.241 86.8549 148.585 86.769 149.014 86.769Z" fill="#3A3C6C"/>
<path fill-rule="evenodd" clip-rule="evenodd" d="M180.774 87.3694C182.147 87.3694 183.263 88.5711 183.177 89.9445V91.1462C183.177 92.5196 181.975 93.6355 180.602 93.5497C179.229 93.5497 178.199 92.4338 178.199 91.1462C178.37 91.2321 178.628 91.2321 178.799 91.3179C179.744 91.3179 180.516 90.6312 180.602 89.687C180.602 88.8286 180.001 88.1419 179.229 87.9703C179.658 87.6269 180.173 87.3694 180.774 87.3694Z" fill="#3A3C6C"/>
<path fill-rule="evenodd" clip-rule="evenodd" d="M167.898 95.1806C172.104 91.0604 177.941 100.159 170.645 104.709C181.632 98.8716 171.761 88.3136 167.898 95.1806Z" fill="white"/>
<path fill-rule="evenodd" clip-rule="evenodd" d="M162.834 100.76C164.121 100.674 165.151 101.447 165.237 102.391C165.237 103.078 164.808 103.679 164.035 104.022C164.293 103.764 164.55 103.421 164.465 103.078C164.465 102.305 163.606 101.79 162.576 101.79C161.546 101.876 160.774 102.477 160.859 103.249C160.859 103.335 160.859 103.335 160.859 103.421C160.688 103.164 160.602 102.906 160.516 102.649C160.516 101.704 161.546 100.846 162.834 100.76Z" fill="#3A3C6C"/>
<path fill-rule="evenodd" clip-rule="evenodd" d="M228.328 261.362L220.517 316.642H215.109L219.487 260.332C218.027 260.075 216.911 258.616 216.997 257.071L217.169 254.152L232.105 255.869L231.933 258.787C231.847 260.418 230.474 261.534 228.843 261.362H228.328Z" fill="#DC8C8C"/>
<path fill-rule="evenodd" clip-rule="evenodd" d="M219.487 260.332C218.027 260.075 216.911 258.616 216.997 257.071L217.169 254.152L232.105 255.869L231.933 258.787C231.847 260.418 230.474 261.534 228.843 261.362L228.328 261.277L219.487 260.332Z" fill="#3A3C6C"/>
<path fill-rule="evenodd" clip-rule="evenodd" d="M339.745 261.448L347.556 316.642H352.964L348.586 260.418L349.101 260.332C350.732 260.161 351.934 258.701 351.848 257.071L351.676 254.152L336.74 255.869L336.912 258.787C336.998 260.418 338.286 261.534 339.745 261.448Z" fill="#DC8C8C"/>
<path fill-rule="evenodd" clip-rule="evenodd" d="M349.101 260.332C350.732 260.161 351.934 258.701 351.848 257.071L351.676 254.152L336.74 255.869L336.912 258.787C336.998 260.332 338.286 261.448 339.831 261.362L349.101 260.332Z" fill="#3A3C6C"/>
<path fill-rule="evenodd" clip-rule="evenodd" d="M214.594 252.693H355.195L354.68 257.843H213.993L214.594 252.693Z" fill="#EBB39D"/>
<path fill-rule="evenodd" clip-rule="evenodd" d="M219.744 252.693H220.259C221.032 253.895 223.95 256.985 231.847 255.44C237.255 254.324 243.006 253.551 247.298 253.895C250.817 254.152 253.307 255.096 254.079 257.071C254.165 257.328 254.337 257.671 254.508 257.929H254.079C253.993 257.671 253.822 257.5 253.736 257.242C253.049 255.44 250.646 254.581 247.298 254.324C243.006 254.066 237.341 254.839 231.933 255.869C223.263 257.5 220.345 253.723 219.744 252.693ZM261.289 253.809C262.319 253.809 263.092 254.41 263.092 255.096C263.092 255.783 262.319 256.384 261.289 256.384C260.259 256.384 259.487 255.783 259.487 255.096C259.487 254.41 260.345 253.809 261.289 253.809ZM350.818 252.693H353.994C353.994 253.294 353.221 253.723 352.449 253.723C351.59 253.723 350.904 253.294 350.818 252.693ZM321.29 257.843H314.079V257.757C314.079 256.384 315.71 255.268 317.685 255.268C319.659 255.268 321.29 256.384 321.29 257.843C321.29 257.757 321.29 257.757 321.29 257.843ZM306.697 252.693H307.298C305.839 253.895 304.723 255.354 303.779 256.641C303.436 257.071 303.178 257.5 302.835 257.843H302.32C302.663 257.414 303.092 256.899 303.436 256.384C304.38 255.182 305.41 253.809 306.697 252.693ZM321.547 252.693H322.491C324.637 253.637 326.869 254.495 329.702 254.066C331.934 253.723 334.337 253.208 336.569 252.693H338.2C335.625 253.38 332.534 254.066 329.702 254.495C326.44 254.925 324.037 253.809 321.547 252.693ZM354.852 256.212L354.766 256.641C352.449 256.041 349.015 255.526 346.354 257.843H345.753C348.586 255.01 352.277 255.526 354.852 256.212ZM294.766 257.843H293.908C291.676 256.556 288.757 255.268 284.294 255.096C280.603 255.01 275.882 256.298 271.762 257.843H270.646C275.109 256.126 280.345 254.581 284.38 254.753C289.358 254.839 292.448 256.47 294.766 257.843Z" fill="#DC8C8C"/>
<path fill-rule="evenodd" clip-rule="evenodd" d="M246.096 169.602H247.899L335.711 168.315L351.676 168.057H351.762H351.848H351.934H352.02H352.106H352.191H352.277H352.363H352.449H352.535H352.621H352.706H352.792C352.878 168.057 352.878 168.057 352.964 168.143H353.05H353.136H353.222H353.307H353.393H353.479H353.565H353.651H353.737L353.822 168.229L353.908 168.315L353.994 168.401C354.08 168.487 354.166 168.572 354.252 168.658L354.337 168.744L354.423 168.83L354.509 168.916L354.595 169.002C354.767 169.259 354.938 169.517 355.024 169.86V169.946V170.032C355.024 170.117 355.024 170.117 355.024 170.203C355.024 170.289 355.024 170.289 355.024 170.375V170.461V170.547V170.632V170.718C355.024 170.804 355.024 170.804 355.024 170.89V170.976V171.062V171.148L350.046 242.135V242.221V242.307V242.393V242.478V242.564V242.65V242.736V242.822V242.908V242.993V243.079V243.165V243.251V243.337V243.423V243.508C350.046 243.594 349.96 243.594 349.96 243.68C349.96 243.766 349.874 243.766 349.874 243.852L349.788 243.938L349.702 244.023V244.109C349.616 244.195 349.53 244.281 349.53 244.367L349.445 244.453L349.359 244.538C349.187 244.71 349.101 244.796 348.93 244.968C348.844 245.054 348.758 245.054 348.672 245.139L348.586 245.225C348.5 245.225 348.5 245.311 348.415 245.311H348.329H348.586C349.874 245.311 350.99 246.341 350.99 247.629C350.99 248.916 349.96 250.032 348.672 250.032L227.727 251.749C226.44 251.749 225.324 250.719 225.324 249.431C225.324 248.144 226.354 247.028 227.641 247.028L239.916 246.856C238.8 246.341 238.114 245.139 238.199 243.852L243.178 172.864C242.577 171.148 244.208 169.602 246.096 169.602Z" fill="white"/>
<path fill-rule="evenodd" clip-rule="evenodd" d="M244.294 170.633H349.874C351.762 170.633 353.136 172.178 352.964 173.981L346.955 244.882C346.784 246.771 345.153 248.23 343.264 248.23H237.684C235.796 248.23 234.422 246.685 234.594 244.882L240.603 173.981C240.774 172.092 242.491 170.633 244.294 170.633Z" fill="#5D97B9"/>
<path fill-rule="evenodd" clip-rule="evenodd" d="M246.096 170.632H349.874C351.762 170.632 353.136 172.177 352.964 173.98L346.955 244.882C346.784 246.77 345.153 248.229 343.264 248.229H239.573C237.684 248.229 236.311 246.684 236.483 244.882L242.491 173.98C242.577 172.092 244.208 170.632 246.096 170.632Z" fill="#6DABD0"/>
<path fill-rule="evenodd" clip-rule="evenodd" d="M333.908 170.632H349.874C351.762 170.632 353.136 172.177 352.964 173.98L346.955 244.882C346.784 246.77 345.153 248.229 343.264 248.229H311.333L333.908 170.632Z" fill="#5D97B9"/>
<path fill-rule="evenodd" clip-rule="evenodd" d="M299.659 201.018C304.294 201.018 307.298 204.795 306.354 209.43C305.41 214.065 300.861 217.842 296.14 217.842C291.504 217.842 288.5 214.065 289.444 209.43C290.474 204.795 295.024 201.018 299.659 201.018Z" fill="white"/>
<path fill-rule="evenodd" clip-rule="evenodd" d="M344.981 247.972H224.122C222.834 247.972 221.804 249.002 221.804 250.29C221.804 251.577 222.834 252.607 224.122 252.607H345.067C346.354 252.607 347.384 251.577 347.384 250.29C347.384 249.002 346.354 247.972 344.981 247.972Z" fill="#484881"/>
<path fill-rule="evenodd" clip-rule="evenodd" d="M245.324 171.491L349.101 169.345C349.187 169.345 349.273 169.345 349.359 169.345C350.217 169.431 350.99 169.774 351.505 170.375C352.02 170.976 352.363 171.748 352.449 172.607C352.449 172.692 352.449 172.778 352.449 172.95L347.899 244.023C347.814 244.967 347.384 245.912 346.698 246.598C346.011 247.285 345.067 247.714 344.123 247.714V247.285C344.981 247.285 345.839 246.856 346.44 246.255C347.041 245.654 347.47 244.882 347.556 243.937L352.105 172.864C352.105 172.778 352.105 172.692 352.105 172.607C352.105 171.834 351.762 171.147 351.333 170.632C350.818 170.117 350.217 169.774 349.444 169.774C349.359 169.774 349.273 169.774 349.187 169.774L245.41 171.92L245.324 171.491Z" fill="#3A3C6C"/>
</svg>
